<svg xmlns="http://www.w3.org/2000/svg" width="41.484" height="22.23" viewBox="0 0 41.484 22.23">
  <path id="Path_601" data-name="Path 601" d="M2.6-3.3a1.157,1.157,0,0,1-.475.094.861.861,0,0,1-.586-.375,3.966,3.966,0,0,1-.58-.937A6.064,6.064,0,0,1,.4-7,2.173,2.173,0,0,1,.691-8.2l1.09-1.2A7.265,7.265,0,0,1,2.895-10.43a26.026,26.026,0,0,1,14-5.414q1-.059,1.547-.059a2.169,2.169,0,0,1,.9.158,3.2,3.2,0,0,1,.662.41,5.053,5.053,0,0,1,.6.563,6.058,6.058,0,0,1,.492.615,1.968,1.968,0,0,1,.445.879,2.11,2.11,0,0,1-.105.6q-.105.346-.246.75t-.3.8l-.258.68a53.606,53.606,0,0,1-4.148,8.473q-.8,1.324-1.33,2.045T14.256,1.23q-.357.434-.768.855a10.158,10.158,0,0,1-.879.8,8.072,8.072,0,0,1-.961.674A4.191,4.191,0,0,1,9.516,4.2a2.637,2.637,0,0,1-1.594-.738,2.159,2.159,0,0,1-.937-1.594q0-1.312,2.566-3.832A24.937,24.937,0,0,1,12-4.119q1.1-.826,1.594-1.119,1.84-3.48,2.262-4.359l.656-1.395a5.671,5.671,0,0,0,.492-1.3q0-.527-.562-.527a5.147,5.147,0,0,0-1.441.27,15.312,15.312,0,0,0-1.887.732q-1.008.463-2.092,1.078T8.9-9.439q-1.037.686-1.98,1.412T5.25-6.621a5.408,5.408,0,0,0-1.758,2.3A1.352,1.352,0,0,1,2.6-3.3ZM26.883-7.582q0,.422.316.422a1.751,1.751,0,0,0,1-.516l1.02-.879A4.839,4.839,0,0,1,32.3-9.949q.949,0,1.688,1.582a17.764,17.764,0,0,1,1.16,4.055q.094.445.158.445a1.033,1.033,0,0,0,.34-.211q.275-.211.674-.539,2.871-2.449,3.322-2.736t.627-.387a3.937,3.937,0,0,1,.363-.182,2.268,2.268,0,0,1,.738-.176q.516,0,.516.539A4.955,4.955,0,0,1,40.8-5.168a19.168,19.168,0,0,1-3.2,3.5Q35.285.387,33.551.387q-1.828,0-2.461-2.461-.164-.633-.258-1.184l-.176-.914q-.07-.363-.182-.363t-.463.352l-.867.879a18.2,18.2,0,0,1-2.437,2.156A6.361,6.361,0,0,1,23.238.234a1.938,1.938,0,0,1-2.1-1.8,8.2,8.2,0,0,1-.094-1.365,10.8,10.8,0,0,1,.234-2.021,18.08,18.08,0,0,1,.645-2.391,16.513,16.513,0,0,1,2.215-4.359l1.043-1.383q3.785-4.945,6.328-4.945a.864.864,0,0,1,.832.563,1.3,1.3,0,0,1,.082.527,2.034,2.034,0,0,1-.3.908,9.909,9.909,0,0,1-.75,1.154q-.445.6-.955,1.213t-.932,1.213l-.879,1.277Q26.883-8.59,26.883-7.582Z" transform="translate(-0.398 18.035)"/>
</svg>
